# Blender v2.79 (sub 0) OBJ File: 'pkarcs_doors3_L.blend'
# www.blender.org
o Cube
v 0.500000 -0.500000 -0.500000
v 0.500000 -0.500000 -0.375000
v -0.500000 -0.500000 -0.375000
v -0.500000 -0.500000 -0.500000
v 0.500000 1.500000 -0.500000
v -0.500000 2.437500 -0.500000
v -0.250000 2.437500 -0.500000
v -0.250000 2.375000 -0.500000
v -0.062500 2.375000 -0.500000
v -0.062500 2.312500 -0.500000
v 0.000000 2.312500 -0.500000
v 0.000000 2.250000 -0.500000
v 0.125000 2.250000 -0.500000
v 0.125000 2.187500 -0.500000
v 0.187500 2.187500 -0.500000
v 0.187500 2.125000 -0.500000
v 0.250000 2.125000 -0.500000
v 0.250000 2.000000 -0.500000
v 0.312500 2.000000 -0.500000
v 0.312500 1.937500 -0.500000
v 0.375000 1.937500 -0.500000
v 0.375000 1.750000 -0.500000
v 0.437500 1.750000 -0.500000
v 0.437500 1.500000 -0.500000
v 0.500000 1.500000 -0.378906
v -0.500000 2.437500 -0.375000
v 0.437500 1.500000 -0.378906
v 0.437500 1.750000 -0.378906
v 0.375000 1.750000 -0.378906
v 0.375000 1.937500 -0.378906
v 0.312500 1.937500 -0.378906
v 0.312500 2.000000 -0.378906
v 0.250000 2.000000 -0.378906
v 0.250000 2.125000 -0.378906
v 0.187500 2.125000 -0.378906
v 0.187500 2.187500 -0.378906
v 0.125000 2.187500 -0.378906
v 0.125000 2.250000 -0.378906
v 0.000000 2.250000 -0.378906
v 0.000000 2.312500 -0.378906
v -0.062500 2.312500 -0.378906
v -0.062500 2.375000 -0.378906
v -0.250000 2.375000 -0.378906
v -0.250000 2.437500 -0.378906
vt 0.000000 0.000000
vt 1.000000 0.021277
vt 0.000000 0.021277
vt 0.500000 0.895833
vt 0.250000 0.812500
vt 0.125000 0.729167
vt -0.000000 0.645833
vt 0.062500 0.000000
vt 0.062500 0.645833
vt 0.125000 0.729167
vt 0.250000 0.812500
vt 0.500000 0.895833
vt 1.000000 0.000000
vt 0.937500 0.958333
vt 1.000000 0.958333
vt 0.062500 0.979167
vt -0.000000 0.958333
vt -0.000000 0.979167
vt 1.000000 0.979167
vt 0.750000 0.958333
vt 0.750000 0.979167
vt -0.000000 0.937500
vt 0.062500 0.958333
vt 0.062500 0.937500
vt 0.750000 0.958333
vt 0.562500 0.979167
vt 0.562500 0.958333
vt 0.062500 0.916667
vt -0.000000 0.895833
vt -0.000000 0.916667
vt 0.375000 0.958333
vt 0.500000 0.979167
vt 0.500000 0.958333
vt 0.062500 0.895833
vt -0.000000 0.875000
vt -0.000000 0.895833
vt 0.375000 0.958333
vt 0.312500 0.979167
vt 0.312500 0.958333
vt -0.000000 0.875000
vt 0.062500 0.854167
vt 0.062500 0.875000
vt 0.312500 0.979167
vt 0.250000 0.958333
vt 0.250000 0.979167
vt 0.062500 0.854167
vt -0.000000 0.812500
vt -0.000000 0.854167
vt 0.250000 0.979167
vt 0.187500 0.958333
vt 0.187500 0.979167
vt 0.062500 0.812500
vt -0.000000 0.791667
vt -0.000000 0.812500
vt 0.125000 0.979167
vt 0.187500 0.958333
vt 0.187500 0.979167
vt 0.062500 0.729167
vt -0.000000 0.791667
vt 0.062500 0.791667
vt 0.062500 0.979167
vt 0.125000 0.958333
vt 0.125000 0.979167
vt -0.000000 0.729167
vt 0.062500 0.645833
vt -0.000000 0.645833
vt 0.062500 0.937500
vt -0.000000 0.916667
vt 0.062500 0.916667
vt 0.562500 0.979167
vt 0.500000 0.958333
vt 0.500000 0.979167
vt 1.000000 0.000000
vt 0.062500 0.645833
vt -0.000000 0.645833
vt 0.000000 0.000000
vt 0.750000 0.958333
vt 0.750000 0.937500
vt 0.562500 0.937500
vt 0.562500 0.916667
vt 0.500000 0.916667
vt 0.375000 0.895833
vt 0.375000 0.875000
vt 0.312500 0.875000
vt 0.312500 0.854167
vt 0.250000 0.854167
vt 0.187500 0.812500
vt 0.187500 0.791667
vt 0.125000 0.791667
vt 0.062500 0.729167
vt 1.000000 0.958333
vt 0.750000 0.937500
vt 0.062500 0.645833
vt 0.062500 0.729167
vt 0.562500 0.916667
vt 0.562500 0.937500
vt 0.500000 0.916667
vt 0.375000 0.875000
vt 0.375000 0.895833
vt 0.312500 0.854167
vt 0.312500 0.875000
vt 0.250000 0.854167
vt 0.187500 0.791667
vt 0.187500 0.812500
vt 0.125000 0.791667
vt 0.937500 0.000000
vt 0.062500 0.958333
vt -0.000000 0.958333
vt 0.750000 0.979167
vt 0.062500 0.895833
vt 0.375000 0.979167
vt 0.062500 0.875000
vt 0.375000 0.979167
vt -0.000000 0.854167
vt 0.312500 0.958333
vt 0.062500 0.812500
vt 0.250000 0.958333
vt 0.062500 0.791667
vt 0.125000 0.958333
vt -0.000000 0.729167
vt 0.062500 0.958333
vt 0.062500 0.729167
vt -0.000000 0.937500
vt 0.562500 0.958333
vn 0.0000 -1.0000 0.0000
vn 0.0000 0.0000 -1.0000
vn 1.0000 0.0000 0.0000
vn 0.0000 0.0000 1.0000
vn -1.0000 0.0000 0.0000
vn 0.0000 1.0000 0.0000
vn 0.0156 0.0000 0.9999
vn 0.0042 0.0000 1.0000
vn 0.0194 0.0153 0.9997
vn 0.0000 0.0020 1.0000
s off
f 2/1/1 4/2/1 1/3/1
f 12/4/2 18/5/2 22/6/2
f 25/7/3 1/8/3 5/9/3
f 29/10/4 33/11/4 39/12/4
f 4/13/5 26/14/5 6/15/5
f 25/16/6 24/17/6 27/18/6
f 6/19/6 44/20/6 7/21/6
f 7/22/3 43/23/3 8/24/3
f 8/25/6 42/26/6 9/27/6
f 39/28/3 11/29/3 40/30/3
f 38/31/6 12/32/6 39/33/6
f 37/34/3 13/35/3 38/36/3
f 36/37/6 14/38/6 37/39/6
f 35/40/3 15/41/3 36/42/3
f 34/43/6 16/44/6 35/45/6
f 33/46/3 17/47/3 34/48/3
f 32/49/6 18/50/6 33/51/6
f 31/52/3 19/53/3 32/54/3
f 30/55/6 20/56/6 31/57/6
f 29/58/3 21/59/3 30/60/3
f 28/61/6 22/62/6 29/63/6
f 27/64/3 23/65/3 28/66/3
f 9/67/3 41/68/3 10/69/3
f 40/70/6 10/71/6 41/72/6
f 2/1/1 3/73/1 4/2/1
f 24/74/2 5/75/2 1/76/2
f 1/76/2 4/13/2 24/74/2
f 4/13/2 6/15/2 24/74/2
f 6/15/2 7/77/2 8/78/2
f 8/78/2 9/79/2 10/80/2
f 10/80/2 11/81/2 12/4/2
f 12/4/2 13/82/2 14/83/2
f 14/83/2 15/84/2 16/85/2
f 16/85/2 17/86/2 18/5/2
f 18/5/2 19/87/2 20/88/2
f 20/88/2 21/89/2 22/6/2
f 22/6/2 23/90/2 24/74/2
f 6/15/2 8/78/2 22/6/2
f 8/78/2 10/80/2 12/4/2
f 12/4/2 14/83/2 16/85/2
f 8/78/2 12/4/2 22/6/2
f 22/6/2 24/74/2 6/15/2
f 18/5/2 20/88/2 22/6/2
f 12/4/2 16/85/2 18/5/2
f 25/7/3 2/1/3 1/8/3
f 44/20/7 26/91/7 43/92/7
f 26/91/8 3/73/8 27/93/8
f 43/92/9 26/91/9 27/93/9
f 3/73/10 2/1/10 27/93/10
f 2/1/10 25/7/10 27/93/10
f 27/93/4 28/94/4 29/10/4
f 41/95/4 42/96/4 43/92/4
f 39/12/4 40/97/4 41/95/4
f 37/98/4 38/99/4 39/12/4
f 35/100/4 36/101/4 37/98/4
f 33/11/4 34/102/4 35/100/4
f 31/103/4 32/104/4 33/11/4
f 29/10/4 30/105/4 31/103/4
f 27/93/4 29/10/4 43/92/4
f 41/95/4 43/92/4 39/12/4
f 39/12/4 43/92/4 29/10/4
f 35/100/4 37/98/4 39/12/4
f 29/10/4 31/103/4 33/11/4
f 33/11/4 35/100/4 39/12/4
f 4/13/5 3/106/5 26/14/5
f 25/16/6 5/107/6 24/17/6
f 6/19/6 26/91/6 44/20/6
f 7/22/3 44/108/3 43/23/3
f 8/25/6 43/109/6 42/26/6
f 39/28/3 12/110/3 11/29/3
f 38/31/6 13/111/6 12/32/6
f 37/34/3 14/112/3 13/35/3
f 36/37/6 15/113/6 14/38/6
f 35/40/3 16/114/3 15/41/3
f 34/43/6 17/115/6 16/44/6
f 33/46/3 18/116/3 17/47/3
f 32/49/6 19/117/6 18/50/6
f 31/52/3 20/118/3 19/53/3
f 30/55/6 21/119/6 20/56/6
f 29/58/3 22/120/3 21/59/3
f 28/61/6 23/121/6 22/62/6
f 27/64/3 24/122/3 23/65/3
f 9/67/3 42/123/3 41/68/3
f 40/70/6 11/124/6 10/71/6
